SplineFontDB: 3.2
FontName: IthkuilPixel
FullName: Ithkuil Pixel
FamilyName: Ithkuil Pixel
Weight: Regular
Copyright: Shankar Sivarajan
UComments: "2023-2-19: Created with FontForge (http://fontforge.org)"
Version: 
ItalicAngle: 0
UnderlinePosition: -128
UnderlineWidth: 64
Ascent: 1024
Descent: 0
InvalidEm: 0
LayerCount: 2
Layer: 0 0 "Back" 1
Layer: 1 0 "Fore" 0
XUID: [1021 73 1113128204 8431]
FSType: 0
OS2Version: 0
OS2_WeightWidthSlopeOnly: 0
OS2_UseTypoMetrics: 1
CreationTime: 1676795389
ModificationTime: 1710713536
PfmFamily: 17
TTFWeight: 400
TTFWidth: 5
LineGap: 96
VLineGap: 0
OS2TypoAscent: 0
OS2TypoAOffset: 1
OS2TypoDescent: 0
OS2TypoDOffset: 1
OS2TypoLinegap: 96
OS2WinAscent: 0
OS2WinAOffset: 1
OS2WinDescent: 0
OS2WinDOffset: 1
HheadAscent: 0
HheadAOffset: 1
HheadDescent: 0
HheadDOffset: 1
OS2Vendor: 'PfEd'
OS2CodePages: 00000000.00000000
OS2UnicodeRanges: 00000000.00000000.00000000.00000000
Lookup: 6 0 0 "OneQuote" { "OneQuote subtable"  } ['liga' ('grek' <'dflt' > 'latn' <'dflt' > 'DFLT' <'dflt' > ) ]
Lookup: 1 0 0 "Single Substitution lookup 1" { "Single Substitution lookup 1 subtable"  } []
Lookup: 4 0 1 "FlipCores" { "FlipCores subtable"  } ['liga' ('grek' <'dflt' > 'latn' <'dflt' > 'DFLT' <'dflt' > ) ]
Lookup: 4 0 1 "VowelLigature" { "VowelLigature subtable"  } ['liga' ('grek' <'dflt' > 'latn' <'dflt' > 'DFLT' <'dflt' > ) ]
MarkAttachClasses: 1
DEI: 91125
ChainSub2: coverage "OneQuote subtable" 0 0 0 1
 1 0 0
  Coverage: 32 quotesingle quoteleft quoteright
 1
  SeqLookup: 0 "Single Substitution lookup 1"
EndFPST

StartChar: RPV.VAR
Encoding: 65536 -1 0
Width: 1024
Flags: H
LayerCount: 2
Back
SplineSet
-202 543 m 4
 -202 596 -159 639 -106 639 c 4
 -53 639 -10 596 -10 543 c 4
 -10 490 -53 447 -106 447 c 4
 -159 447 -202 490 -202 543 c 4
-250 495 m 4
 -250 548 -207 591 -154 591 c 4
 -101 591 -58 548 -58 495 c 4
 -58 442 -101 399 -154 399 c 4
 -207 399 -250 442 -250 495 c 4
EndSplineSet
Fore
Validated: 1
EndChar

StartChar: b
Encoding: 98 98 1
Width: 1024
Flags: HW
LayerCount: 2
Fore
SplineSet
128 640 m 1
 256 640 l 1
 256 768 l 1
 128 768 l 1
 128 640 l 1
256 512 m 1
 384 512 l 1
 384 640 l 1
 256 640 l 1
 256 512 l 1
256 768 m 1
 384 768 l 1
 512 768 l 1
 640 768 l 1
 768 768 l 1
 896 768 l 1
 896 896 l 1
 768 896 l 1
 640 896 l 1
 512 896 l 1
 384 896 l 1
 256 896 l 1
 256 768 l 1
384 384 m 1
 512 384 l 1
 512 512 l 1
 384 512 l 1
 384 384 l 1
512 0 m 1
 640 0 l 1
 640 128 l 1
 640 256 l 1
 640 384 l 1
 512 384 l 1
 512 256 l 1
 512 128 l 1
 512 0 l 1
640 384 m 1
 768 384 l 1
 768 512 l 1
 640 512 l 1
 640 384 l 1
EndSplineSet
Validated: 5
EndChar

StartChar: c
Encoding: 99 99 2
Width: 1024
Flags: HW
LayerCount: 2
Fore
SplineSet
128 128 m 1
 256 128 l 1
 256 256 l 1
 256 384 l 1
 256 512 l 1
 256 640 l 1
 256 768 l 1
 256 896 l 1
 128 896 l 1
 128 768 l 1
 128 640 l 1
 128 512 l 1
 128 384 l 1
 128 256 l 1
 128 128 l 1
256 0 m 1
 384 0 l 1
 512 0 l 1
 640 0 l 1
 768 0 l 1
 896 0 l 1
 896 128 l 1
 768 128 l 1
 640 128 l 1
 512 128 l 1
 384 128 l 1
 256 128 l 1
 256 0 l 1
EndSplineSet
EndChar

StartChar: d
Encoding: 100 100 3
Width: 1024
Flags: HW
LayerCount: 2
Fore
SplineSet
128 384 m 1
 256 384 l 1
 256 512 l 1
 256 640 l 1
 256 768 l 1
 128 768 l 1
 128 640 l 1
 128 512 l 1
 128 384 l 1
256 0 m 1
 384 0 l 1
 384 128 l 1
 384 256 l 1
 384 384 l 1
 256 384 l 1
 256 256 l 1
 256 128 l 1
 256 0 l 1
256 768 m 1
 384 768 l 1
 512 768 l 1
 640 768 l 1
 768 768 l 1
 896 768 l 1
 896 896 l 1
 768 896 l 1
 640 896 l 1
 512 896 l 1
 384 896 l 1
 256 896 l 1
 256 768 l 1
EndSplineSet
Validated: 5
EndChar

StartChar: f
Encoding: 102 102 4
Width: 1024
Flags: HW
LayerCount: 2
Fore
SplineSet
128 384 m 1
 256 384 l 1
 256 512 l 1
 256 640 l 1
 256 768 l 1
 128 768 l 1
 128 640 l 1
 128 512 l 1
 128 384 l 1
256 256 m 1
 384 256 l 1
 512 256 l 1
 512 128 l 1
 512 0 l 1
 640 0 l 1
 640 128 l 1
 640 256 l 1
 640 384 l 1
 512 384 l 1
 384 384 l 1
 256 384 l 1
 256 256 l 1
256 768 m 1
 384 768 l 1
 512 768 l 1
 640 768 l 1
 768 768 l 1
 896 768 l 1
 896 896 l 1
 768 896 l 1
 640 896 l 1
 512 896 l 1
 384 896 l 1
 256 896 l 1
 256 768 l 1
EndSplineSet
Validated: 5
EndChar

StartChar: g
Encoding: 103 103 5
Width: 1024
Flags: HW
LayerCount: 2
Fore
SplineSet
128 512 m 1
 256 512 l 1
 256 640 l 1
 256 768 l 1
 128 768 l 1
 128 640 l 1
 128 512 l 1
256 384 m 1
 384 384 l 1
 384 512 l 1
 256 512 l 1
 256 384 l 1
256 768 m 1
 384 768 l 1
 512 768 l 1
 640 768 l 1
 768 768 l 1
 896 768 l 1
 896 896 l 1
 768 896 l 1
 640 896 l 1
 512 896 l 1
 384 896 l 1
 256 896 l 1
 256 768 l 1
384 256 m 1
 512 256 l 1
 512 384 l 1
 384 384 l 1
 384 256 l 1
512 384 m 1
 640 384 l 1
 640 512 l 1
 512 512 l 1
 512 384 l 1
640 256 m 1
 768 256 l 1
 768 384 l 1
 640 384 l 1
 640 256 l 1
768 0 m 1
 896 0 l 1
 896 128 l 1
 896 256 l 1
 768 256 l 1
 768 128 l 1
 768 0 l 1
EndSplineSet
Validated: 5
EndChar

StartChar: h
Encoding: 104 104 6
Width: 896
Flags: HW
LayerCount: 2
Fore
SplineSet
128 384 m 1
 256 384 l 1
 256 512 l 1
 256 640 l 1
 256 768 l 1
 256 896 l 1
 128 896 l 1
 128 768 l 1
 128 640 l 1
 128 512 l 1
 128 384 l 1
256 256 m 1
 384 256 l 1
 512 256 l 1
 640 256 l 1
 640 384 l 1
 512 384 l 1
 384 384 l 1
 256 384 l 1
 256 256 l 1
640 0 m 1
 768 0 l 1
 768 128 l 1
 768 256 l 1
 640 256 l 1
 640 128 l 1
 640 0 l 1
640 384 m 1
 768 384 l 1
 768 512 l 1
 640 512 l 1
 640 384 l 1
EndSplineSet
Validated: 5
EndChar

StartChar: j
Encoding: 106 106 7
Width: 1024
Flags: HW
LayerCount: 2
Fore
SplineSet
128 0 m 1
 256 0 l 1
 256 128 l 1
 128 128 l 1
 128 0 l 1
256 128 m 1
 384 128 l 1
 384 256 l 1
 384 384 l 1
 384 512 l 1
 384 640 l 1
 384 768 l 1
 256 768 l 1
 256 640 l 1
 256 512 l 1
 256 384 l 1
 256 256 l 1
 256 128 l 1
384 0 m 1
 512 0 l 1
 640 0 l 1
 768 0 l 1
 896 0 l 1
 896 128 l 1
 768 128 l 1
 640 128 l 1
 512 128 l 1
 384 128 l 1
 384 0 l 1
384 768 m 1
 512 768 l 1
 640 768 l 1
 768 768 l 1
 896 768 l 1
 896 896 l 1
 768 896 l 1
 640 896 l 1
 512 896 l 1
 384 896 l 1
 384 768 l 1
EndSplineSet
Validated: 5
EndChar

StartChar: k
Encoding: 107 107 8
Width: 1024
Flags: HW
LayerCount: 2
Fore
SplineSet
128 640 m 1
 256 640 l 1
 256 768 l 1
 128 768 l 1
 128 640 l 1
256 512 m 1
 384 512 l 1
 384 640 l 1
 256 640 l 1
 256 512 l 1
256 768 m 1
 384 768 l 1
 512 768 l 1
 640 768 l 1
 768 768 l 1
 896 768 l 1
 896 896 l 1
 768 896 l 1
 640 896 l 1
 512 896 l 1
 384 896 l 1
 256 896 l 1
 256 768 l 1
384 384 m 1
 512 384 l 1
 512 512 l 1
 384 512 l 1
 384 384 l 1
512 256 m 1
 640 256 l 1
 640 384 l 1
 512 384 l 1
 512 256 l 1
640 128 m 1
 768 128 l 1
 768 256 l 1
 640 256 l 1
 640 128 l 1
768 0 m 1
 896 0 l 1
 896 128 l 1
 768 128 l 1
 768 0 l 1
EndSplineSet
Validated: 5
EndChar

StartChar: l
Encoding: 108 108 9
Width: 1024
Flags: HW
LayerCount: 2
Fore
SplineSet
128 128 m 1
 256 128 l 1
 256 256 l 1
 128 256 l 1
 128 128 l 1
256 0 m 1
 384 0 l 1
 512 0 l 1
 640 0 l 1
 768 0 l 1
 896 0 l 1
 896 128 l 1
 768 128 l 1
 640 128 l 1
 512 128 l 1
 384 128 l 1
 256 128 l 1
 256 0 l 1
256 256 m 1
 384 256 l 1
 512 256 l 1
 512 384 l 1
 384 384 l 1
 256 384 l 1
 256 256 l 1
256 640 m 1
 384 640 l 1
 384 768 l 1
 384 896 l 1
 256 896 l 1
 256 768 l 1
 256 640 l 1
384 512 m 1
 512 512 l 1
 512 640 l 1
 384 640 l 1
 384 512 l 1
512 384 m 1
 640 384 l 1
 640 512 l 1
 512 512 l 1
 512 384 l 1
EndSplineSet
Validated: 5
EndChar

StartChar: m
Encoding: 109 109 10
Width: 768
Flags: HW
LayerCount: 2
Fore
SplineSet
128 384 m 1
 256 384 l 1
 256 512 l 1
 256 640 l 1
 256 768 l 1
 256 896 l 1
 128 896 l 1
 128 768 l 1
 128 640 l 1
 128 512 l 1
 128 384 l 1
256 256 m 1
 384 256 l 1
 384 384 l 1
 256 384 l 1
 256 256 l 1
384 128 m 1
 512 128 l 1
 512 256 l 1
 384 256 l 1
 384 128 l 1
512 0 m 1
 640 0 l 1
 640 128 l 1
 512 128 l 1
 512 0 l 1
EndSplineSet
Validated: 5
EndChar

StartChar: n
Encoding: 110 110 11
Width: 768
Flags: HW
LayerCount: 2
Fore
SplineSet
128 128 m 1
 256 128 l 1
 256 256 l 1
 128 256 l 1
 128 128 l 1
128 384 m 1
 256 384 l 1
 256 512 l 1
 256 640 l 1
 256 768 l 1
 256 896 l 1
 128 896 l 1
 128 768 l 1
 128 640 l 1
 128 512 l 1
 128 384 l 1
256 256 m 1
 384 256 l 1
 384 384 l 1
 256 384 l 1
 256 256 l 1
384 128 m 1
 512 128 l 1
 512 256 l 1
 384 256 l 1
 384 128 l 1
512 0 m 1
 640 0 l 1
 640 128 l 1
 512 128 l 1
 512 0 l 1
EndSplineSet
Validated: 5
EndChar

StartChar: p
Encoding: 112 112 12
Width: 1024
Flags: HW
LayerCount: 2
Fore
SplineSet
128 640 m 1
 256 640 l 1
 256 768 l 1
 128 768 l 1
 128 640 l 1
256 512 m 1
 384 512 l 1
 384 640 l 1
 256 640 l 1
 256 512 l 1
256 768 m 1
 384 768 l 1
 512 768 l 1
 640 768 l 1
 768 768 l 1
 896 768 l 1
 896 896 l 1
 768 896 l 1
 640 896 l 1
 512 896 l 1
 384 896 l 1
 256 896 l 1
 256 768 l 1
384 384 m 1
 512 384 l 1
 512 512 l 1
 384 512 l 1
 384 384 l 1
512 0 m 1
 640 0 l 1
 640 128 l 1
 640 256 l 1
 640 384 l 1
 512 384 l 1
 512 256 l 1
 512 128 l 1
 512 0 l 1
EndSplineSet
Validated: 5
EndChar

StartChar: r
Encoding: 114 114 13
Width: 1024
Flags: HW
LayerCount: 2
Fore
SplineSet
128 128 m 1
 256 128 l 1
 256 256 l 1
 128 256 l 1
 128 128 l 1
256 0 m 1
 384 0 l 1
 512 0 l 1
 640 0 l 1
 768 0 l 1
 896 0 l 1
 896 128 l 1
 768 128 l 1
 640 128 l 1
 512 128 l 1
 384 128 l 1
 256 128 l 1
 256 0 l 1
256 256 m 1
 384 256 l 1
 512 256 l 1
 640 256 l 1
 640 384 l 1
 512 384 l 1
 384 384 l 1
 256 384 l 1
 256 256 l 1
256 768 m 1
 384 768 l 1
 512 768 l 1
 512 896 l 1
 384 896 l 1
 256 896 l 1
 256 768 l 1
512 640 m 1
 640 640 l 1
 640 768 l 1
 512 768 l 1
 512 640 l 1
640 384 m 1
 768 384 l 1
 768 512 l 1
 768 640 l 1
 640 640 l 1
 640 512 l 1
 640 384 l 1
EndSplineSet
Validated: 5
EndChar

StartChar: s
Encoding: 115 115 14
Width: 1024
Flags: HW
LayerCount: 2
Fore
SplineSet
128 256 m 1
 256 256 l 1
 256 384 l 1
 128 384 l 1
 128 256 l 1
256 128 m 1
 384 128 l 1
 384 256 l 1
 256 256 l 1
 256 128 l 1
256 384 m 1
 384 384 l 1
 512 384 l 1
 640 384 l 1
 768 384 l 1
 768 512 l 1
 640 512 l 1
 512 512 l 1
 384 512 l 1
 256 512 l 1
 256 384 l 1
384 0 m 1
 512 0 l 1
 512 128 l 1
 384 128 l 1
 384 0 l 1
768 512 m 1
 896 512 l 1
 896 640 l 1
 896 768 l 1
 896 896 l 1
 768 896 l 1
 768 768 l 1
 768 640 l 1
 768 512 l 1
EndSplineSet
EndChar

StartChar: t
Encoding: 116 116 15
Width: 1024
Flags: HW
LayerCount: 2
Fore
SplineSet
128 0 m 1
 256 0 l 1
 256 128 l 1
 256 256 l 1
 256 384 l 1
 256 512 l 1
 256 640 l 1
 256 768 l 1
 128 768 l 1
 128 640 l 1
 128 512 l 1
 128 384 l 1
 128 256 l 1
 128 128 l 1
 128 0 l 1
256 768 m 1
 384 768 l 1
 512 768 l 1
 640 768 l 1
 768 768 l 1
 896 768 l 1
 896 896 l 1
 768 896 l 1
 640 896 l 1
 512 896 l 1
 384 896 l 1
 256 896 l 1
 256 768 l 1
EndSplineSet
Validated: 5
EndChar

StartChar: v
Encoding: 118 118 16
Width: 1024
Flags: HW
LayerCount: 2
Fore
SplineSet
128 128 m 1
 256 128 l 1
 256 256 l 1
 128 256 l 1
 128 128 l 1
128 384 m 1
 256 384 l 1
 256 512 l 1
 256 640 l 1
 256 768 l 1
 128 768 l 1
 128 640 l 1
 128 512 l 1
 128 384 l 1
256 256 m 1
 384 256 l 1
 512 256 l 1
 512 128 l 1
 512 0 l 1
 640 0 l 1
 640 128 l 1
 640 256 l 1
 640 384 l 1
 512 384 l 1
 384 384 l 1
 256 384 l 1
 256 256 l 1
256 768 m 1
 384 768 l 1
 512 768 l 1
 640 768 l 1
 768 768 l 1
 896 768 l 1
 896 896 l 1
 768 896 l 1
 640 896 l 1
 512 896 l 1
 384 896 l 1
 256 896 l 1
 256 768 l 1
EndSplineSet
Validated: 5
EndChar

StartChar: x
Encoding: 120 120 17
Width: 1024
Flags: HW
LayerCount: 2
Fore
SplineSet
128 640 m 1
 256 640 l 1
 256 768 l 1
 128 768 l 1
 128 640 l 1
256 256 m 1
 384 256 l 1
 384 384 l 1
 256 384 l 1
 256 256 l 1
256 512 m 1
 384 512 l 1
 384 640 l 1
 256 640 l 1
 256 512 l 1
256 768 m 1
 384 768 l 1
 512 768 l 1
 640 768 l 1
 768 768 l 1
 896 768 l 1
 896 896 l 1
 768 896 l 1
 640 896 l 1
 512 896 l 1
 384 896 l 1
 256 896 l 1
 256 768 l 1
384 128 m 1
 512 128 l 1
 512 256 l 1
 384 256 l 1
 384 128 l 1
384 384 m 1
 512 384 l 1
 512 512 l 1
 384 512 l 1
 384 384 l 1
512 0 m 1
 640 0 l 1
 640 128 l 1
 512 128 l 1
 512 0 l 1
EndSplineSet
Validated: 5
EndChar

StartChar: z
Encoding: 122 122 18
Width: 1024
Flags: HW
LayerCount: 2
Fore
SplineSet
128 256 m 1
 256 256 l 1
 256 384 l 1
 128 384 l 1
 128 256 l 1
256 128 m 1
 384 128 l 1
 384 256 l 1
 256 256 l 1
 256 128 l 1
256 384 m 1
 384 384 l 1
 512 384 l 1
 640 384 l 1
 768 384 l 1
 768 512 l 1
 640 512 l 1
 512 512 l 1
 384 512 l 1
 256 512 l 1
 256 384 l 1
384 0 m 1
 512 0 l 1
 512 128 l 1
 384 128 l 1
 384 0 l 1
512 768 m 1
 640 768 l 1
 640 896 l 1
 512 896 l 1
 512 768 l 1
640 640 m 1
 768 640 l 1
 768 768 l 1
 640 768 l 1
 640 640 l 1
768 512 m 1
 896 512 l 1
 896 640 l 1
 768 640 l 1
 768 512 l 1
EndSplineSet
Validated: 5
EndChar

StartChar: zcaron
Encoding: 382 382 19
Width: 1024
Flags: HW
LayerCount: 2
Fore
SplineSet
128 128 m 1
 256 128 l 1
 256 256 l 1
 256 384 l 1
 256 512 l 1
 128 512 l 1
 128 384 l 1
 128 256 l 1
 128 128 l 1
256 0 m 1
 384 0 l 1
 512 0 l 1
 640 0 l 1
 768 0 l 1
 896 0 l 1
 896 128 l 1
 768 128 l 1
 640 128 l 1
 512 128 l 1
 384 128 l 1
 256 128 l 1
 256 0 l 1
256 512 m 1
 384 512 l 1
 512 512 l 1
 640 512 l 1
 640 640 l 1
 512 640 l 1
 384 640 l 1
 256 640 l 1
 256 512 l 1
512 768 m 1
 640 768 l 1
 640 896 l 1
 512 896 l 1
 512 768 l 1
640 640 m 1
 768 640 l 1
 768 768 l 1
 640 768 l 1
 640 640 l 1
EndSplineSet
Validated: 5
EndChar

StartChar: zdotaccent
Encoding: 380 380 20
Width: 1024
Flags: HW
LayerCount: 2
Fore
SplineSet
128 0 m 1
 256 0 l 1
 256 128 l 1
 128 128 l 1
 128 0 l 1
256 128 m 1
 384 128 l 1
 384 256 l 1
 384 384 l 1
 384 512 l 1
 384 640 l 1
 384 768 l 1
 384 896 l 1
 256 896 l 1
 256 768 l 1
 256 640 l 1
 256 512 l 1
 256 384 l 1
 256 256 l 1
 256 128 l 1
384 0 m 1
 512 0 l 1
 640 0 l 1
 768 0 l 1
 896 0 l 1
 896 128 l 1
 768 128 l 1
 640 128 l 1
 512 128 l 1
 384 128 l 1
 384 0 l 1
EndSplineSet
Validated: 5
EndChar

StartChar: tcedilla
Encoding: 355 355 21
Width: 1024
Flags: HW
LayerCount: 2
Fore
SplineSet
128 384 m 1
 256 384 l 1
 256 512 l 1
 256 640 l 1
 256 768 l 1
 128 768 l 1
 128 640 l 1
 128 512 l 1
 128 384 l 1
256 256 m 1
 384 256 l 1
 384 384 l 1
 256 384 l 1
 256 256 l 1
256 768 m 1
 384 768 l 1
 512 768 l 1
 640 768 l 1
 768 768 l 1
 896 768 l 1
 896 896 l 1
 768 896 l 1
 640 896 l 1
 512 896 l 1
 384 896 l 1
 256 896 l 1
 256 768 l 1
384 128 m 1
 512 128 l 1
 512 256 l 1
 384 256 l 1
 384 128 l 1
512 0 m 1
 640 0 l 1
 640 128 l 1
 512 128 l 1
 512 0 l 1
EndSplineSet
Validated: 5
EndChar

StartChar: scaron
Encoding: 353 353 22
Width: 1024
Flags: HW
LayerCount: 2
Fore
SplineSet
128 128 m 1
 256 128 l 1
 256 256 l 1
 256 384 l 1
 256 512 l 1
 128 512 l 1
 128 384 l 1
 128 256 l 1
 128 128 l 1
256 0 m 1
 384 0 l 1
 512 0 l 1
 640 0 l 1
 768 0 l 1
 896 0 l 1
 896 128 l 1
 768 128 l 1
 640 128 l 1
 512 128 l 1
 384 128 l 1
 256 128 l 1
 256 0 l 1
256 512 m 1
 384 512 l 1
 512 512 l 1
 640 512 l 1
 640 640 l 1
 640 768 l 1
 640 896 l 1
 512 896 l 1
 512 768 l 1
 512 640 l 1
 384 640 l 1
 256 640 l 1
 256 512 l 1
EndSplineSet
Validated: 5
EndChar

StartChar: rcaron
Encoding: 345 345 23
Width: 896
Flags: HW
LayerCount: 2
Fore
SplineSet
128 768 m 1
 256 768 l 1
 256 896 l 1
 128 896 l 1
 128 768 l 1
256 128 m 1
 384 128 l 1
 384 256 l 1
 384 384 l 1
 384 512 l 1
 256 512 l 1
 256 384 l 1
 256 256 l 1
 256 128 l 1
256 640 m 1
 384 640 l 1
 384 768 l 1
 256 768 l 1
 256 640 l 1
384 0 m 1
 512 0 l 1
 640 0 l 1
 768 0 l 1
 768 128 l 1
 640 128 l 1
 512 128 l 1
 384 128 l 1
 384 0 l 1
384 512 m 1
 512 512 l 1
 512 640 l 1
 384 640 l 1
 384 512 l 1
512 384 m 1
 640 384 l 1
 640 512 l 1
 512 512 l 1
 512 384 l 1
EndSplineSet
Validated: 5
EndChar

StartChar: ncaron
Encoding: 328 328 24
Width: 768
Flags: HW
LayerCount: 2
Fore
SplineSet
128 384 m 1
 256 384 l 1
 256 512 l 1
 128 512 l 1
 128 384 l 1
256 256 m 1
 384 256 l 1
 384 384 l 1
 256 384 l 1
 256 256 l 1
256 512 m 1
 384 512 l 1
 384 640 l 1
 384 768 l 1
 384 896 l 1
 256 896 l 1
 256 768 l 1
 256 640 l 1
 256 512 l 1
384 128 m 1
 512 128 l 1
 512 256 l 1
 384 256 l 1
 384 128 l 1
512 0 m 1
 640 0 l 1
 640 128 l 1
 512 128 l 1
 512 0 l 1
EndSplineSet
Validated: 5
EndChar

StartChar: lcedilla
Encoding: 316 316 25
Width: 896
Flags: HW
LayerCount: 2
Fore
SplineSet
128 512 m 1
 256 512 l 1
 256 640 l 1
 256 768 l 1
 256 896 l 1
 128 896 l 1
 128 768 l 1
 128 640 l 1
 128 512 l 1
256 384 m 1
 384 384 l 1
 384 512 l 1
 256 512 l 1
 256 384 l 1
384 256 m 1
 512 256 l 1
 512 384 l 1
 384 384 l 1
 384 256 l 1
512 128 m 1
 640 128 l 1
 640 256 l 1
 512 256 l 1
 512 128 l 1
512 384 m 1
 640 384 l 1
 640 512 l 1
 512 512 l 1
 512 384 l 1
640 0 m 1
 768 0 l 1
 768 128 l 1
 640 128 l 1
 640 0 l 1
EndSplineSet
Validated: 5
EndChar

StartChar: ccedilla
Encoding: 231 231 26
Width: 1024
Flags: HW
LayerCount: 2
Fore
SplineSet
128 256 m 1
 256 256 l 1
 256 384 l 1
 128 384 l 1
 128 256 l 1
256 128 m 1
 384 128 l 1
 384 256 l 1
 256 256 l 1
 256 128 l 1
256 384 m 1
 384 384 l 1
 512 384 l 1
 512 512 l 1
 384 512 l 1
 256 512 l 1
 256 384 l 1
384 0 m 1
 512 0 l 1
 512 128 l 1
 384 128 l 1
 384 0 l 1
384 640 m 1
 512 640 l 1
 512 768 l 1
 384 768 l 1
 384 640 l 1
512 512 m 1
 640 512 l 1
 640 640 l 1
 512 640 l 1
 512 512 l 1
512 768 m 1
 640 768 l 1
 768 768 l 1
 896 768 l 1
 896 896 l 1
 768 896 l 1
 640 896 l 1
 512 896 l 1
 512 768 l 1
EndSplineSet
Validated: 5
EndChar

StartChar: ccaron
Encoding: 269 269 27
Width: 1024
Flags: HW
LayerCount: 2
Fore
SplineSet
128 128 m 1
 256 128 l 1
 256 256 l 1
 256 384 l 1
 256 512 l 1
 256 640 l 1
 256 768 l 1
 128 768 l 1
 128 640 l 1
 128 512 l 1
 128 384 l 1
 128 256 l 1
 128 128 l 1
256 0 m 1
 384 0 l 1
 512 0 l 1
 640 0 l 1
 768 0 l 1
 896 0 l 1
 896 128 l 1
 768 128 l 1
 640 128 l 1
 512 128 l 1
 384 128 l 1
 256 128 l 1
 256 0 l 1
256 768 m 1
 384 768 l 1
 512 768 l 1
 640 768 l 1
 768 768 l 1
 896 768 l 1
 896 896 l 1
 768 896 l 1
 640 896 l 1
 512 896 l 1
 384 896 l 1
 256 896 l 1
 256 768 l 1
EndSplineSet
Validated: 5
EndChar

StartChar: Z
Encoding: 90 90 28
Width: 1024
Flags: HW
LayerCount: 2
Fore
SplineSet
128 128 m 1
 256 128 l 1
 256 256 l 1
 128 256 l 1
 128 128 l 1
128 768 m 1
 256 768 l 1
 384 768 l 1
 512 768 l 1
 640 768 l 1
 640 896 l 1
 512 896 l 1
 384 896 l 1
 256 896 l 1
 128 896 l 1
 128 768 l 1
256 0 m 1
 384 0 l 1
 512 0 l 1
 640 0 l 1
 768 0 l 1
 896 0 l 1
 896 128 l 1
 768 128 l 1
 640 128 l 1
 512 128 l 1
 384 128 l 1
 256 128 l 1
 256 0 l 1
256 256 m 1
 384 256 l 1
 384 384 l 1
 256 384 l 1
 256 256 l 1
384 384 m 1
 512 384 l 1
 512 512 l 1
 384 512 l 1
 384 384 l 1
512 512 m 1
 640 512 l 1
 640 640 l 1
 512 640 l 1
 512 512 l 1
640 640 m 1
 768 640 l 1
 768 768 l 1
 640 768 l 1
 640 640 l 1
EndSplineSet
Validated: 5
Ligature2: "FlipCores subtable" Z quotesingle
LCarets2: 1 0
EndChar

StartChar: bar
Encoding: 124 124 29
Width: 640
Flags: HW
LayerCount: 2
Fore
SplineSet
384 0 m 1
 512 0 l 1
 512 128 l 1
 512 256 l 1
 512 384 l 1
 512 512 l 1
 512 640 l 1
 512 768 l 1
 512 896 l 1
 384 896 l 1
 384 768 l 1
 384 640 l 1
 384 512 l 1
 384 384 l 1
 384 256 l 1
 384 128 l 1
 384 0 l 1
EndSplineSet
Validated: 9
Ligature2: "FlipCores subtable" bar quotesingle
LCarets2: 1 0
EndChar

StartChar: braceleft
Encoding: 123 123 30
Width: 640
Flags: HW
LayerCount: 2
Fore
SplineSet
256 0 m 1
 384 0 l 1
 384 128 l 1
 384 256 l 1
 384 384 l 1
 384 512 l 1
 256 512 l 1
 256 384 l 1
 256 256 l 1
 256 128 l 1
 256 0 l 1
384 512 m 1
 512 512 l 1
 512 640 l 1
 512 768 l 1
 512 896 l 1
 384 896 l 1
 384 768 l 1
 384 640 l 1
 384 512 l 1
EndSplineSet
Validated: 5
Ligature2: "FlipCores subtable" braceright quotesingle
LCarets2: 1 0
EndChar

StartChar: braceright
Encoding: 125 125 31
Width: 640
Flags: HW
LayerCount: 2
Fore
SplineSet
256 512 m 1
 384 512 l 1
 384 640 l 1
 384 768 l 1
 384 896 l 1
 256 896 l 1
 256 768 l 1
 256 640 l 1
 256 512 l 1
384 0 m 1
 512 0 l 1
 512 128 l 1
 512 256 l 1
 512 384 l 1
 512 512 l 1
 384 512 l 1
 384 384 l 1
 384 256 l 1
 384 128 l 1
 384 0 l 1
EndSplineSet
Validated: 5
Ligature2: "FlipCores subtable" braceleft quotesingle
LCarets2: 1 0
EndChar

StartChar: b.flip
Encoding: 65537 -1 33
Width: 1024
Flags: HW
LayerCount: 2
Fore
SplineSet
896 256 m 1
 768 256 l 1
 768 128 l 1
 896 128 l 1
 896 256 l 1
768 384 m 1
 640 384 l 1
 640 256 l 1
 768 256 l 1
 768 384 l 1
768 128 m 1
 640 128 l 1
 512 128 l 1
 384 128 l 1
 256 128 l 1
 128 128 l 1
 128 0 l 1
 256 0 l 1
 384 0 l 1
 512 0 l 1
 640 0 l 1
 768 0 l 1
 768 128 l 1
640 512 m 1
 512 512 l 1
 512 384 l 1
 640 384 l 1
 640 512 l 1
512 896 m 1
 384 896 l 1
 384 768 l 1
 384 640 l 1
 384 512 l 1
 512 512 l 1
 512 640 l 1
 512 768 l 1
 512 896 l 1
384 512 m 1
 256 512 l 1
 256 384 l 1
 384 384 l 1
 384 512 l 1
EndSplineSet
Validated: 5
Ligature2: "FlipCores subtable" b quotesingle
LCarets2: 1 128
EndChar

StartChar: c.flip
Encoding: 65538 -1 34
Width: 1024
Flags: HW
LayerCount: 2
Fore
SplineSet
896 768 m 1
 768 768 l 1
 768 640 l 1
 768 512 l 1
 768 384 l 1
 768 256 l 1
 768 128 l 1
 768 0 l 1
 896 0 l 1
 896 128 l 1
 896 256 l 1
 896 384 l 1
 896 512 l 1
 896 640 l 1
 896 768 l 1
768 896 m 1
 640 896 l 1
 512 896 l 1
 384 896 l 1
 256 896 l 1
 128 896 l 1
 128 768 l 1
 256 768 l 1
 384 768 l 1
 512 768 l 1
 640 768 l 1
 768 768 l 1
 768 896 l 1
EndSplineSet
Validated: 5
Ligature2: "FlipCores subtable" c quotesingle
LCarets2: 1 128
EndChar

StartChar: d.flip
Encoding: 65539 -1 35
Width: 1024
Flags: HW
LayerCount: 2
Fore
SplineSet
896 512 m 1
 768 512 l 1
 768 384 l 1
 768 256 l 1
 768 128 l 1
 896 128 l 1
 896 256 l 1
 896 384 l 1
 896 512 l 1
768 896 m 1
 640 896 l 1
 640 768 l 1
 640 640 l 1
 640 512 l 1
 768 512 l 1
 768 640 l 1
 768 768 l 1
 768 896 l 1
768 128 m 1
 640 128 l 1
 512 128 l 1
 384 128 l 1
 256 128 l 1
 128 128 l 1
 128 0 l 1
 256 0 l 1
 384 0 l 1
 512 0 l 1
 640 0 l 1
 768 0 l 1
 768 128 l 1
EndSplineSet
Ligature2: "FlipCores subtable" d quotesingle
LCarets2: 1 1024
EndChar

StartChar: f.flip
Encoding: 65540 -1 36
Width: 1024
Flags: HW
LayerCount: 2
Fore
SplineSet
896 512 m 1
 768 512 l 1
 768 384 l 1
 768 256 l 1
 768 128 l 1
 896 128 l 1
 896 256 l 1
 896 384 l 1
 896 512 l 1
768 640 m 1
 640 640 l 1
 512 640 l 1
 512 768 l 1
 512 896 l 1
 384 896 l 1
 384 768 l 1
 384 640 l 1
 384 512 l 1
 512 512 l 1
 640 512 l 1
 768 512 l 1
 768 640 l 1
768 128 m 1
 640 128 l 1
 512 128 l 1
 384 128 l 1
 256 128 l 1
 128 128 l 1
 128 0 l 1
 256 0 l 1
 384 0 l 1
 512 0 l 1
 640 0 l 1
 768 0 l 1
 768 128 l 1
EndSplineSet
Validated: 5
Ligature2: "FlipCores subtable" f quotesingle
LCarets2: 1 128
EndChar

StartChar: g.flip
Encoding: 65541 -1 37
Width: 1024
Flags: HW
LayerCount: 2
Fore
SplineSet
896 384 m 1
 768 384 l 1
 768 256 l 1
 768 128 l 1
 896 128 l 1
 896 256 l 1
 896 384 l 1
768 512 m 1
 640 512 l 1
 640 384 l 1
 768 384 l 1
 768 512 l 1
768 128 m 1
 640 128 l 1
 512 128 l 1
 384 128 l 1
 256 128 l 1
 128 128 l 1
 128 0 l 1
 256 0 l 1
 384 0 l 1
 512 0 l 1
 640 0 l 1
 768 0 l 1
 768 128 l 1
640 640 m 1
 512 640 l 1
 512 512 l 1
 640 512 l 1
 640 640 l 1
512 512 m 1
 384 512 l 1
 384 384 l 1
 512 384 l 1
 512 512 l 1
384 640 m 1
 256 640 l 1
 256 512 l 1
 384 512 l 1
 384 640 l 1
256 896 m 1
 128 896 l 1
 128 768 l 1
 128 640 l 1
 256 640 l 1
 256 768 l 1
 256 896 l 1
EndSplineSet
Validated: 5
Ligature2: "FlipCores subtable" g quotesingle
LCarets2: 1 128
EndChar

StartChar: h.flip
Encoding: 65542 -1 38
Width: 896
Flags: HW
LayerCount: 2
Fore
SplineSet
768 512 m 1
 640 512 l 1
 640 384 l 1
 640 256 l 1
 640 128 l 1
 640 0 l 1
 768 0 l 1
 768 128 l 1
 768 256 l 1
 768 384 l 1
 768 512 l 1
640 640 m 1
 512 640 l 1
 384 640 l 1
 256 640 l 1
 256 512 l 1
 384 512 l 1
 512 512 l 1
 640 512 l 1
 640 640 l 1
256 896 m 1
 128 896 l 1
 128 768 l 1
 128 640 l 1
 256 640 l 1
 256 768 l 1
 256 896 l 1
256 512 m 1
 128 512 l 1
 128 384 l 1
 256 384 l 1
 256 512 l 1
EndSplineSet
Ligature2: "FlipCores subtable" h quotesingle
LCarets2: 1 112
EndChar

StartChar: j.flip
Encoding: 65543 -1 39
Width: 1024
Flags: HW
LayerCount: 2
Fore
SplineSet
896 896 m 1
 768 896 l 1
 768 768 l 1
 896 768 l 1
 896 896 l 1
768 768 m 1
 640 768 l 1
 640 640 l 1
 640 512 l 1
 640 384 l 1
 640 256 l 1
 640 128 l 1
 768 128 l 1
 768 256 l 1
 768 384 l 1
 768 512 l 1
 768 640 l 1
 768 768 l 1
640 896 m 1
 512 896 l 1
 384 896 l 1
 256 896 l 1
 128 896 l 1
 128 768 l 1
 256 768 l 1
 384 768 l 1
 512 768 l 1
 640 768 l 1
 640 896 l 1
640 128 m 1
 512 128 l 1
 384 128 l 1
 256 128 l 1
 128 128 l 1
 128 0 l 1
 256 0 l 1
 384 0 l 1
 512 0 l 1
 640 0 l 1
 640 128 l 1
EndSplineSet
Validated: 5
Ligature2: "FlipCores subtable" j quotesingle
LCarets2: 1 128
EndChar

StartChar: k.flip
Encoding: 65544 -1 40
Width: 1024
Flags: HW
LayerCount: 2
Fore
SplineSet
896 256 m 1
 768 256 l 1
 768 128 l 1
 896 128 l 1
 896 256 l 1
768 384 m 1
 640 384 l 1
 640 256 l 1
 768 256 l 1
 768 384 l 1
768 128 m 1
 640 128 l 1
 512 128 l 1
 384 128 l 1
 256 128 l 1
 128 128 l 1
 128 0 l 1
 256 0 l 1
 384 0 l 1
 512 0 l 1
 640 0 l 1
 768 0 l 1
 768 128 l 1
640 512 m 1
 512 512 l 1
 512 384 l 1
 640 384 l 1
 640 512 l 1
512 640 m 1
 384 640 l 1
 384 512 l 1
 512 512 l 1
 512 640 l 1
384 768 m 1
 256 768 l 1
 256 640 l 1
 384 640 l 1
 384 768 l 1
256 896 m 1
 128 896 l 1
 128 768 l 1
 256 768 l 1
 256 896 l 1
EndSplineSet
Validated: 5
Ligature2: "FlipCores subtable" k quotesingle
LCarets2: 1 128
EndChar

StartChar: l.flip
Encoding: 65545 -1 41
Width: 1024
Flags: HW
LayerCount: 2
Fore
SplineSet
896 768 m 1
 768 768 l 1
 768 640 l 1
 896 640 l 1
 896 768 l 1
768 896 m 1
 640 896 l 1
 512 896 l 1
 384 896 l 1
 256 896 l 1
 128 896 l 1
 128 768 l 1
 256 768 l 1
 384 768 l 1
 512 768 l 1
 640 768 l 1
 768 768 l 1
 768 896 l 1
768 640 m 1
 640 640 l 1
 512 640 l 1
 512 512 l 1
 640 512 l 1
 768 512 l 1
 768 640 l 1
768 256 m 1
 640 256 l 1
 640 128 l 1
 640 0 l 1
 768 0 l 1
 768 128 l 1
 768 256 l 1
640 384 m 1
 512 384 l 1
 512 256 l 1
 640 256 l 1
 640 384 l 1
512 512 m 1
 384 512 l 1
 384 384 l 1
 512 384 l 1
 512 512 l 1
EndSplineSet
Validated: 5
Ligature2: "FlipCores subtable" l quotesingle
LCarets2: 1 128
EndChar

StartChar: m.flip
Encoding: 65546 -1 42
Width: 768
Flags: HW
LayerCount: 2
Fore
SplineSet
640 512 m 1
 512 512 l 1
 512 384 l 1
 512 256 l 1
 512 128 l 1
 512 0 l 1
 640 0 l 1
 640 128 l 1
 640 256 l 1
 640 384 l 1
 640 512 l 1
512 640 m 1
 384 640 l 1
 384 512 l 1
 512 512 l 1
 512 640 l 1
384 768 m 1
 256 768 l 1
 256 640 l 1
 384 640 l 1
 384 768 l 1
256 896 m 1
 128 896 l 1
 128 768 l 1
 256 768 l 1
 256 896 l 1
EndSplineSet
Validated: 5
Ligature2: "FlipCores subtable" m quotesingle
LCarets2: 1 96
EndChar

StartChar: n.flip
Encoding: 65547 -1 43
Width: 768
Flags: HW
LayerCount: 2
Fore
SplineSet
640 768 m 1
 512 768 l 1
 512 640 l 1
 640 640 l 1
 640 768 l 1
640 512 m 1
 512 512 l 1
 512 384 l 1
 512 256 l 1
 512 128 l 1
 512 0 l 1
 640 0 l 1
 640 128 l 1
 640 256 l 1
 640 384 l 1
 640 512 l 1
512 640 m 1
 384 640 l 1
 384 512 l 1
 512 512 l 1
 512 640 l 1
384 768 m 1
 256 768 l 1
 256 640 l 1
 384 640 l 1
 384 768 l 1
256 896 m 1
 128 896 l 1
 128 768 l 1
 256 768 l 1
 256 896 l 1
EndSplineSet
Validated: 5
Ligature2: "FlipCores subtable" n quotesingle
LCarets2: 1 96
EndChar

StartChar: p.flip
Encoding: 65548 -1 44
Width: 1024
Flags: HW
LayerCount: 2
Fore
SplineSet
896 256 m 1
 768 256 l 1
 768 128 l 1
 896 128 l 1
 896 256 l 1
768 384 m 1
 640 384 l 1
 640 256 l 1
 768 256 l 1
 768 384 l 1
768 128 m 1
 640 128 l 1
 512 128 l 1
 384 128 l 1
 256 128 l 1
 128 128 l 1
 128 0 l 1
 256 0 l 1
 384 0 l 1
 512 0 l 1
 640 0 l 1
 768 0 l 1
 768 128 l 1
640 512 m 1
 512 512 l 1
 512 384 l 1
 640 384 l 1
 640 512 l 1
512 896 m 1
 384 896 l 1
 384 768 l 1
 384 640 l 1
 384 512 l 1
 512 512 l 1
 512 640 l 1
 512 768 l 1
 512 896 l 1
EndSplineSet
Validated: 5
Ligature2: "FlipCores subtable" p quotesingle
LCarets2: 1 128
EndChar

StartChar: r.flip
Encoding: 65549 -1 45
Width: 1024
Flags: HW
LayerCount: 2
Fore
SplineSet
896 768 m 1
 768 768 l 1
 768 640 l 1
 896 640 l 1
 896 768 l 1
768 896 m 1
 640 896 l 1
 512 896 l 1
 384 896 l 1
 256 896 l 1
 128 896 l 1
 128 768 l 1
 256 768 l 1
 384 768 l 1
 512 768 l 1
 640 768 l 1
 768 768 l 1
 768 896 l 1
768 640 m 1
 640 640 l 1
 512 640 l 1
 384 640 l 1
 384 512 l 1
 512 512 l 1
 640 512 l 1
 768 512 l 1
 768 640 l 1
768 128 m 1
 640 128 l 1
 512 128 l 1
 512 0 l 1
 640 0 l 1
 768 0 l 1
 768 128 l 1
512 256 m 1
 384 256 l 1
 384 128 l 1
 512 128 l 1
 512 256 l 1
384 512 m 1
 256 512 l 1
 256 384 l 1
 256 256 l 1
 384 256 l 1
 384 384 l 1
 384 512 l 1
EndSplineSet
Validated: 5
Ligature2: "FlipCores subtable" r quotesingle
LCarets2: 1 128
EndChar

StartChar: s.flip
Encoding: 65550 -1 46
Width: 1024
Flags: HW
LayerCount: 2
Fore
SplineSet
896 640 m 1
 768 640 l 1
 768 512 l 1
 896 512 l 1
 896 640 l 1
768 768 m 1
 640 768 l 1
 640 640 l 1
 768 640 l 1
 768 768 l 1
768 512 m 1
 640 512 l 1
 512 512 l 1
 384 512 l 1
 256 512 l 1
 256 384 l 1
 384 384 l 1
 512 384 l 1
 640 384 l 1
 768 384 l 1
 768 512 l 1
640 896 m 1
 512 896 l 1
 512 768 l 1
 640 768 l 1
 640 896 l 1
256 384 m 1
 128 384 l 1
 128 256 l 1
 128 128 l 1
 128 0 l 1
 256 0 l 1
 256 128 l 1
 256 256 l 1
 256 384 l 1
EndSplineSet
Validated: 5
Ligature2: "FlipCores subtable" s quotesingle
LCarets2: 1 128
EndChar

StartChar: t.flip
Encoding: 65551 -1 47
Width: 1024
Flags: HW
LayerCount: 2
Fore
SplineSet
896 896 m 1
 768 896 l 1
 768 768 l 1
 768 640 l 1
 768 512 l 1
 768 384 l 1
 768 256 l 1
 768 128 l 1
 896 128 l 1
 896 256 l 1
 896 384 l 1
 896 512 l 1
 896 640 l 1
 896 768 l 1
 896 896 l 1
768 128 m 1
 640 128 l 1
 512 128 l 1
 384 128 l 1
 256 128 l 1
 128 128 l 1
 128 0 l 1
 256 0 l 1
 384 0 l 1
 512 0 l 1
 640 0 l 1
 768 0 l 1
 768 128 l 1
EndSplineSet
Validated: 5
Ligature2: "FlipCores subtable" t quotesingle
LCarets2: 1 128
EndChar

StartChar: v.flip
Encoding: 65552 -1 48
Width: 1024
Flags: HW
LayerCount: 2
Fore
SplineSet
896 768 m 1
 768 768 l 1
 768 640 l 1
 896 640 l 1
 896 768 l 1
896 512 m 1
 768 512 l 1
 768 384 l 1
 768 256 l 1
 768 128 l 1
 896 128 l 1
 896 256 l 1
 896 384 l 1
 896 512 l 1
768 640 m 1
 640 640 l 1
 512 640 l 1
 512 768 l 1
 512 896 l 1
 384 896 l 1
 384 768 l 1
 384 640 l 1
 384 512 l 1
 512 512 l 1
 640 512 l 1
 768 512 l 1
 768 640 l 1
768 128 m 1
 640 128 l 1
 512 128 l 1
 384 128 l 1
 256 128 l 1
 128 128 l 1
 128 0 l 1
 256 0 l 1
 384 0 l 1
 512 0 l 1
 640 0 l 1
 768 0 l 1
 768 128 l 1
EndSplineSet
Validated: 5
Ligature2: "FlipCores subtable" v quotesingle
LCarets2: 1 128
EndChar

StartChar: x.flip
Encoding: 65553 -1 49
Width: 1024
Flags: HW
LayerCount: 2
Fore
SplineSet
896 256 m 1
 768 256 l 1
 768 128 l 1
 896 128 l 1
 896 256 l 1
768 640 m 1
 640 640 l 1
 640 512 l 1
 768 512 l 1
 768 640 l 1
768 384 m 1
 640 384 l 1
 640 256 l 1
 768 256 l 1
 768 384 l 1
768 128 m 1
 640 128 l 1
 512 128 l 1
 384 128 l 1
 256 128 l 1
 128 128 l 1
 128 0 l 1
 256 0 l 1
 384 0 l 1
 512 0 l 1
 640 0 l 1
 768 0 l 1
 768 128 l 1
640 768 m 1
 512 768 l 1
 512 640 l 1
 640 640 l 1
 640 768 l 1
640 512 m 1
 512 512 l 1
 512 384 l 1
 640 384 l 1
 640 512 l 1
512 896 m 1
 384 896 l 1
 384 768 l 1
 512 768 l 1
 512 896 l 1
EndSplineSet
Validated: 5
Ligature2: "FlipCores subtable" x quotesingle
LCarets2: 1 128
EndChar

StartChar: z.flip
Encoding: 65554 -1 50
Width: 1024
Flags: HW
LayerCount: 2
Fore
SplineSet
896 640 m 1
 768 640 l 1
 768 512 l 1
 896 512 l 1
 896 640 l 1
768 768 m 1
 640 768 l 1
 640 640 l 1
 768 640 l 1
 768 768 l 1
768 512 m 1
 640 512 l 1
 512 512 l 1
 384 512 l 1
 256 512 l 1
 256 384 l 1
 384 384 l 1
 512 384 l 1
 640 384 l 1
 768 384 l 1
 768 512 l 1
640 896 m 1
 512 896 l 1
 512 768 l 1
 640 768 l 1
 640 896 l 1
512 128 m 1
 384 128 l 1
 384 0 l 1
 512 0 l 1
 512 128 l 1
384 256 m 1
 256 256 l 1
 256 128 l 1
 384 128 l 1
 384 256 l 1
256 384 m 1
 128 384 l 1
 128 256 l 1
 256 256 l 1
 256 384 l 1
EndSplineSet
Validated: 5
Ligature2: "FlipCores subtable" z quotesingle
LCarets2: 1 128
EndChar

StartChar: ccedilla.flip
Encoding: 65555 -1 51
Width: 1024
Flags: HW
LayerCount: 2
Fore
SplineSet
896 640 m 1
 768 640 l 1
 768 512 l 1
 896 512 l 1
 896 640 l 1
768 768 m 1
 640 768 l 1
 640 640 l 1
 768 640 l 1
 768 768 l 1
768 512 m 1
 640 512 l 1
 512 512 l 1
 512 384 l 1
 640 384 l 1
 768 384 l 1
 768 512 l 1
640 896 m 1
 512 896 l 1
 512 768 l 1
 640 768 l 1
 640 896 l 1
640 256 m 1
 512 256 l 1
 512 128 l 1
 640 128 l 1
 640 256 l 1
512 384 m 1
 384 384 l 1
 384 256 l 1
 512 256 l 1
 512 384 l 1
512 128 m 1
 384 128 l 1
 256 128 l 1
 128 128 l 1
 128 0 l 1
 256 0 l 1
 384 0 l 1
 512 0 l 1
 512 128 l 1
EndSplineSet
Validated: 5
Ligature2: "FlipCores subtable" ccedilla quotesingle
LCarets2: 1 128
EndChar

StartChar: ccaron.flip
Encoding: 65556 -1 52
Width: 1024
Flags: HW
LayerCount: 2
Fore
SplineSet
896 768 m 1
 768 768 l 1
 768 640 l 1
 768 512 l 1
 768 384 l 1
 768 256 l 1
 768 128 l 1
 896 128 l 1
 896 256 l 1
 896 384 l 1
 896 512 l 1
 896 640 l 1
 896 768 l 1
768 896 m 1
 640 896 l 1
 512 896 l 1
 384 896 l 1
 256 896 l 1
 128 896 l 1
 128 768 l 1
 256 768 l 1
 384 768 l 1
 512 768 l 1
 640 768 l 1
 768 768 l 1
 768 896 l 1
768 128 m 1
 640 128 l 1
 512 128 l 1
 384 128 l 1
 256 128 l 1
 128 128 l 1
 128 0 l 1
 256 0 l 1
 384 0 l 1
 512 0 l 1
 640 0 l 1
 768 0 l 1
 768 128 l 1
EndSplineSet
Validated: 5
Ligature2: "FlipCores subtable" ccaron quotesingle
LCarets2: 1 128
EndChar

StartChar: lcedilla.flip
Encoding: 65557 -1 53
Width: 896
Flags: HW
LayerCount: 2
Fore
SplineSet
768 384 m 1
 640 384 l 1
 640 256 l 1
 640 128 l 1
 640 0 l 1
 768 0 l 1
 768 128 l 1
 768 256 l 1
 768 384 l 1
640 512 m 1
 512 512 l 1
 512 384 l 1
 640 384 l 1
 640 512 l 1
512 640 m 1
 384 640 l 1
 384 512 l 1
 512 512 l 1
 512 640 l 1
384 768 m 1
 256 768 l 1
 256 640 l 1
 384 640 l 1
 384 768 l 1
384 512 m 1
 256 512 l 1
 256 384 l 1
 384 384 l 1
 384 512 l 1
256 896 m 1
 128 896 l 1
 128 768 l 1
 256 768 l 1
 256 896 l 1
EndSplineSet
Validated: 5
Ligature2: "FlipCores subtable" lcedilla quotesingle
LCarets2: 1 112
EndChar

StartChar: ncaron.flip
Encoding: 65558 -1 54
Width: 768
Flags: HW
LayerCount: 2
Fore
SplineSet
640 512 m 1
 512 512 l 1
 512 384 l 1
 640 384 l 1
 640 512 l 1
512 640 m 1
 384 640 l 1
 384 512 l 1
 512 512 l 1
 512 640 l 1
512 384 m 1
 384 384 l 1
 384 256 l 1
 384 128 l 1
 384 0 l 1
 512 0 l 1
 512 128 l 1
 512 256 l 1
 512 384 l 1
384 768 m 1
 256 768 l 1
 256 640 l 1
 384 640 l 1
 384 768 l 1
256 896 m 1
 128 896 l 1
 128 768 l 1
 256 768 l 1
 256 896 l 1
EndSplineSet
Validated: 5
Ligature2: "FlipCores subtable" ncaron quotesingle
LCarets2: 1 96
EndChar

StartChar: rcaron.flip
Encoding: 65559 -1 55
Width: 896
Flags: HW
LayerCount: 2
Fore
SplineSet
768 128 m 1
 640 128 l 1
 640 0 l 1
 768 0 l 1
 768 128 l 1
640 768 m 1
 512 768 l 1
 512 640 l 1
 512 512 l 1
 512 384 l 1
 640 384 l 1
 640 512 l 1
 640 640 l 1
 640 768 l 1
640 256 m 1
 512 256 l 1
 512 128 l 1
 640 128 l 1
 640 256 l 1
512 896 m 1
 384 896 l 1
 256 896 l 1
 128 896 l 1
 128 768 l 1
 256 768 l 1
 384 768 l 1
 512 768 l 1
 512 896 l 1
512 384 m 1
 384 384 l 1
 384 256 l 1
 512 256 l 1
 512 384 l 1
384 512 m 1
 256 512 l 1
 256 384 l 1
 384 384 l 1
 384 512 l 1
EndSplineSet
Validated: 5
Ligature2: "FlipCores subtable" rcaron quotesingle
LCarets2: 1 112
EndChar

StartChar: scaron.flip
Encoding: 65560 -1 56
Width: 1024
Flags: HW
LayerCount: 2
Fore
SplineSet
896 768 m 1
 768 768 l 1
 768 640 l 1
 768 512 l 1
 768 384 l 1
 896 384 l 1
 896 512 l 1
 896 640 l 1
 896 768 l 1
768 896 m 1
 640 896 l 1
 512 896 l 1
 384 896 l 1
 256 896 l 1
 128 896 l 1
 128 768 l 1
 256 768 l 1
 384 768 l 1
 512 768 l 1
 640 768 l 1
 768 768 l 1
 768 896 l 1
768 384 m 1
 640 384 l 1
 512 384 l 1
 384 384 l 1
 384 256 l 1
 384 128 l 1
 384 0 l 1
 512 0 l 1
 512 128 l 1
 512 256 l 1
 640 256 l 1
 768 256 l 1
 768 384 l 1
EndSplineSet
Validated: 5
Ligature2: "FlipCores subtable" scaron quotesingle
LCarets2: 1 128
EndChar

StartChar: tcedilla.flip
Encoding: 65561 -1 57
Width: 1024
Flags: HW
LayerCount: 2
Fore
SplineSet
896 512 m 1
 768 512 l 1
 768 384 l 1
 768 256 l 1
 768 128 l 1
 896 128 l 1
 896 256 l 1
 896 384 l 1
 896 512 l 1
768 640 m 1
 640 640 l 1
 640 512 l 1
 768 512 l 1
 768 640 l 1
768 128 m 1
 640 128 l 1
 512 128 l 1
 384 128 l 1
 256 128 l 1
 128 128 l 1
 128 0 l 1
 256 0 l 1
 384 0 l 1
 512 0 l 1
 640 0 l 1
 768 0 l 1
 768 128 l 1
640 768 m 1
 512 768 l 1
 512 640 l 1
 640 640 l 1
 640 768 l 1
512 896 m 1
 384 896 l 1
 384 768 l 1
 512 768 l 1
 512 896 l 1
EndSplineSet
Validated: 5
Ligature2: "FlipCores subtable" tcedilla quotesingle
LCarets2: 1 128
EndChar

StartChar: zdotaccent.flip
Encoding: 65562 -1 58
Width: 1024
Flags: HW
LayerCount: 2
Fore
SplineSet
896 896 m 1
 768 896 l 1
 768 768 l 1
 896 768 l 1
 896 896 l 1
768 768 m 1
 640 768 l 1
 640 640 l 1
 640 512 l 1
 640 384 l 1
 640 256 l 1
 640 128 l 1
 640 0 l 1
 768 0 l 1
 768 128 l 1
 768 256 l 1
 768 384 l 1
 768 512 l 1
 768 640 l 1
 768 768 l 1
640 896 m 1
 512 896 l 1
 384 896 l 1
 256 896 l 1
 128 896 l 1
 128 768 l 1
 256 768 l 1
 384 768 l 1
 512 768 l 1
 640 768 l 1
 640 896 l 1
EndSplineSet
Validated: 5
Ligature2: "FlipCores subtable" zdotaccent quotesingle
LCarets2: 1 128
EndChar

StartChar: zcaron.flip
Encoding: 65563 -1 59
Width: 1024
Flags: HW
LayerCount: 2
Fore
SplineSet
896 768 m 1
 768 768 l 1
 768 640 l 1
 768 512 l 1
 768 384 l 1
 896 384 l 1
 896 512 l 1
 896 640 l 1
 896 768 l 1
768 896 m 1
 640 896 l 1
 512 896 l 1
 384 896 l 1
 256 896 l 1
 128 896 l 1
 128 768 l 1
 256 768 l 1
 384 768 l 1
 512 768 l 1
 640 768 l 1
 768 768 l 1
 768 896 l 1
768 384 m 1
 640 384 l 1
 512 384 l 1
 384 384 l 1
 384 256 l 1
 512 256 l 1
 640 256 l 1
 768 256 l 1
 768 384 l 1
512 128 m 1
 384 128 l 1
 384 0 l 1
 512 0 l 1
 512 128 l 1
384 256 m 1
 256 256 l 1
 256 128 l 1
 384 128 l 1
 384 256 l 1
EndSplineSet
Validated: 5
Ligature2: "FlipCores subtable" zcaron quotesingle
LCarets2: 1 128
EndChar

StartChar: esh.flip
Encoding: 65564 -1 60
Width: 896
Flags: HW
LayerCount: 2
Fore
SplineSet
128 0 m 1
 256 0 l 1
 384 0 l 1
 512 0 l 1
 640 0 l 1
 640 128 l 1
 512 128 l 1
 384 128 l 1
 256 128 l 1
 128 128 l 1
 128 0 l 1
128 768 m 1
 256 768 l 1
 384 768 l 1
 512 768 l 1
 640 768 l 1
 640 896 l 1
 512 896 l 1
 384 896 l 1
 256 896 l 1
 128 896 l 1
 128 768 l 1
384 384 m 1
 512 384 l 1
 512 512 l 1
 384 512 l 1
 384 384 l 1
512 256 m 1
 640 256 l 1
 640 384 l 1
 512 384 l 1
 512 256 l 1
512 512 m 1
 640 512 l 1
 640 640 l 1
 512 640 l 1
 512 512 l 1
640 128 m 1
 768 128 l 1
 768 256 l 1
 640 256 l 1
 640 128 l 1
640 640 m 1
 768 640 l 1
 768 768 l 1
 640 768 l 1
 640 640 l 1
EndSplineSet
Validated: 5
Ligature2: "FlipCores subtable" esh quotesingle
LCarets2: 1 0
EndChar

StartChar: ddotbelow.flip
Encoding: 65565 -1 61
Width: 1024
Flags: HW
LayerCount: 2
Fore
SplineSet
896 768 m 1
 768 768 l 1
 768 640 l 1
 896 640 l 1
 896 768 l 1
896 512 m 1
 768 512 l 1
 768 384 l 1
 768 256 l 1
 768 128 l 1
 896 128 l 1
 896 256 l 1
 896 384 l 1
 896 512 l 1
768 640 m 1
 640 640 l 1
 640 512 l 1
 768 512 l 1
 768 640 l 1
768 128 m 1
 640 128 l 1
 512 128 l 1
 384 128 l 1
 256 128 l 1
 128 128 l 1
 128 0 l 1
 256 0 l 1
 384 0 l 1
 512 0 l 1
 640 0 l 1
 768 0 l 1
 768 128 l 1
640 768 m 1
 512 768 l 1
 512 640 l 1
 640 640 l 1
 640 768 l 1
512 896 m 1
 384 896 l 1
 384 768 l 1
 512 768 l 1
 512 896 l 1
EndSplineSet
Validated: 5
Ligature2: "FlipCores subtable" ddotbelow quotesingle
LCarets2: 1 128
EndChar

StartChar: backslash.flip
Encoding: 65566 -1 62
Width: 1024
Flags: HW
LayerCount: 2
Fore
SplineSet
128 768 m 1
 256 768 l 1
 384 768 l 1
 512 768 l 1
 512 896 l 1
 384 896 l 1
 256 896 l 1
 128 896 l 1
 128 768 l 1
512 640 m 1
 640 640 l 1
 640 768 l 1
 512 768 l 1
 512 640 l 1
640 512 m 1
 768 512 l 1
 768 640 l 1
 640 640 l 1
 640 512 l 1
768 0 m 1
 896 0 l 1
 896 128 l 1
 896 256 l 1
 896 384 l 1
 896 512 l 1
 768 512 l 1
 768 384 l 1
 768 256 l 1
 768 128 l 1
 768 0 l 1
EndSplineSet
Validated: 5
Ligature2: "FlipCores subtable" backslash quotesingle
LCarets2: 1 0
EndChar

StartChar: backslash
Encoding: 92 92 63
Width: 1024
Flags: HW
LayerCount: 2
Fore
SplineSet
128 384 m 1
 256 384 l 1
 256 512 l 1
 256 640 l 1
 256 768 l 1
 256 896 l 1
 128 896 l 1
 128 768 l 1
 128 640 l 1
 128 512 l 1
 128 384 l 1
256 256 m 1
 384 256 l 1
 384 384 l 1
 256 384 l 1
 256 256 l 1
384 128 m 1
 512 128 l 1
 512 256 l 1
 384 256 l 1
 384 128 l 1
512 0 m 1
 640 0 l 1
 768 0 l 1
 896 0 l 1
 896 128 l 1
 768 128 l 1
 640 128 l 1
 512 128 l 1
 512 0 l 1
EndSplineSet
Validated: 5
EndChar

StartChar: colon
Encoding: 58 58 64
Width: 1024
Flags: HW
LayerCount: 2
Fore
SplineSet
256 768 m 1
 384 768 l 1
 512 768 l 1
 512 896 l 1
 384 896 l 1
 256 896 l 1
 256 768 l 1
384 256 m 1
 512 256 l 1
 512 384 l 1
 512 512 l 1
 384 512 l 1
 384 384 l 1
 384 256 l 1
512 128 m 1
 640 128 l 1
 640 256 l 1
 512 256 l 1
 512 128 l 1
512 640 m 1
 640 640 l 1
 640 768 l 1
 512 768 l 1
 512 640 l 1
640 0 m 1
 768 0 l 1
 896 0 l 1
 896 128 l 1
 768 128 l 1
 640 128 l 1
 640 0 l 1
640 384 m 1
 768 384 l 1
 768 512 l 1
 768 640 l 1
 640 640 l 1
 640 512 l 1
 640 384 l 1
EndSplineSet
Validated: 5
EndChar

StartChar: parenleft
Encoding: 40 40 65
Width: 1024
Flags: HW
LayerCount: 2
Fore
SplineSet
128 768 m 1
 256 768 l 1
 384 768 l 1
 384 896 l 1
 256 896 l 1
 128 896 l 1
 128 768 l 1
384 512 m 1
 512 512 l 1
 512 640 l 1
 512 768 l 1
 384 768 l 1
 384 640 l 1
 384 512 l 1
512 384 m 1
 640 384 l 1
 768 384 l 1
 768 512 l 1
 640 512 l 1
 512 512 l 1
 512 384 l 1
768 0 m 1
 896 0 l 1
 896 128 l 1
 896 256 l 1
 896 384 l 1
 768 384 l 1
 768 256 l 1
 768 128 l 1
 768 0 l 1
EndSplineSet
Validated: 5
Ligature2: "FlipCores subtable" parenright quotesingle
LCarets2: 1 0
EndChar

StartChar: parenright
Encoding: 41 41 66
Width: 1024
Flags: HW
LayerCount: 2
Fore
SplineSet
128 512 m 1
 256 512 l 1
 256 640 l 1
 256 768 l 1
 256 896 l 1
 128 896 l 1
 128 768 l 1
 128 640 l 1
 128 512 l 1
256 384 m 1
 384 384 l 1
 512 384 l 1
 512 512 l 1
 384 512 l 1
 256 512 l 1
 256 384 l 1
512 128 m 1
 640 128 l 1
 640 256 l 1
 640 384 l 1
 512 384 l 1
 512 256 l 1
 512 128 l 1
640 0 m 1
 768 0 l 1
 896 0 l 1
 896 128 l 1
 768 128 l 1
 640 128 l 1
 640 0 l 1
EndSplineSet
Validated: 5
Ligature2: "FlipCores subtable" parenleft quotesingle
LCarets2: 1 0
EndChar

StartChar: ddotbelow
Encoding: 7693 7693 67
Width: 1024
Flags: HW
LayerCount: 2
Fore
SplineSet
128 128 m 1
 256 128 l 1
 256 256 l 1
 128 256 l 1
 128 128 l 1
128 384 m 1
 256 384 l 1
 256 512 l 1
 256 640 l 1
 256 768 l 1
 128 768 l 1
 128 640 l 1
 128 512 l 1
 128 384 l 1
256 256 m 1
 384 256 l 1
 384 384 l 1
 256 384 l 1
 256 256 l 1
256 768 m 1
 384 768 l 1
 512 768 l 1
 640 768 l 1
 768 768 l 1
 896 768 l 1
 896 896 l 1
 768 896 l 1
 640 896 l 1
 512 896 l 1
 384 896 l 1
 256 896 l 1
 256 768 l 1
384 128 m 1
 512 128 l 1
 512 256 l 1
 384 256 l 1
 384 128 l 1
512 0 m 1
 640 0 l 1
 640 128 l 1
 512 128 l 1
 512 0 l 1
EndSplineSet
Validated: 5
EndChar

StartChar: .notdef
Encoding: 65567 -1 68
Width: 1024
Flags: HW
LayerCount: 2
Fore
SplineSet
896 768 m 1
 768 768 l 1
 768 640 l 1
 768 512 l 1
 768 384 l 1
 768 256 l 1
 768 128 l 1
 768 0 l 1
 896 0 l 1
 896 128 l 1
 896 256 l 1
 896 384 l 1
 896 512 l 1
 896 640 l 1
 896 768 l 1
768 896 m 1
 640 896 l 1
 512 896 l 1
 384 896 l 1
 256 896 l 1
 128 896 l 1
 128 768 l 1
 256 768 l 1
 384 768 l 1
 512 768 l 1
 640 768 l 1
 768 768 l 1
 768 896 l 1
128 128 m 1
 256 128 l 1
 256 256 l 1
 256 384 l 1
 256 512 l 1
 256 640 l 1
 256 768 l 1
 256 896 l 1
 128 896 l 1
 128 768 l 1
 128 640 l 1
 128 512 l 1
 128 384 l 1
 128 256 l 1
 128 128 l 1
256 0 m 1
 384 0 l 1
 512 0 l 1
 640 0 l 1
 768 0 l 1
 896 0 l 1
 896 128 l 1
 768 128 l 1
 640 128 l 1
 512 128 l 1
 384 128 l 1
 256 128 l 1
 256 0 l 1
EndSplineSet
Validated: 5
EndChar

StartChar: colon.flip
Encoding: 65569 -1 70
Width: 1024
Flags: H
LayerCount: 2
Fore
SplineSet
512 512 m 1
 512 640 l 1
 640 640 l 1
 640 512 l 1
 512 512 l 1
128 512 m 1
 128 896 l 1
 256 896 l 1
 256 512 l 1
 128 512 l 1
256 384 m 1
 256 512 l 1
 384 512 l 1
 384 384 l 1
 256 384 l 1
640 384 m 1
 640 512 l 1
 768 512 l 1
 768 384 l 1
 640 384 l 1
384 256 m 1
 384 384 l 1
 512 384 l 1
 512 256 l 1
 384 256 l 1
768 1 m 1
 768 384 l 1
 896 384 l 1
 896 1 l 1
 768 1 l 1
EndSplineSet
Ligature2: "FlipCores subtable" colon quotesingle
LCarets2: 1 1024
EndChar

StartChar: esh
Encoding: 425 425 71
Width: 896
Flags: HW
LayerCount: 2
Fore
SplineSet
768 896 m 1
 640 896 l 1
 512 896 l 1
 384 896 l 1
 256 896 l 1
 256 768 l 1
 384 768 l 1
 512 768 l 1
 640 768 l 1
 768 768 l 1
 768 896 l 1
768 128 m 1
 640 128 l 1
 512 128 l 1
 384 128 l 1
 256 128 l 1
 256 0 l 1
 384 0 l 1
 512 0 l 1
 640 0 l 1
 768 0 l 1
 768 128 l 1
512 512 m 1
 384 512 l 1
 384 384 l 1
 512 384 l 1
 512 512 l 1
384 640 m 1
 256 640 l 1
 256 512 l 1
 384 512 l 1
 384 640 l 1
384 384 m 1
 256 384 l 1
 256 256 l 1
 384 256 l 1
 384 384 l 1
256 768 m 1
 128 768 l 1
 128 640 l 1
 256 640 l 1
 256 768 l 1
256 256 m 1
 128 256 l 1
 128 128 l 1
 256 128 l 1
 256 256 l 1
EndSplineSet
Validated: 5
EndChar

StartChar: zero
Encoding: 48 48 84
Width: 896
Flags: HW
LayerCount: 2
Fore
SplineSet
128 0 m 1
 256 0 l 1
 256 128 l 1
 256 256 l 1
 128 256 l 1
 128 128 l 1
 128 0 l 1
256 256 m 1
 384 256 l 1
 384 384 l 1
 256 384 l 1
 256 256 l 1
384 384 m 1
 512 384 l 1
 512 512 l 1
 384 512 l 1
 384 384 l 1
512 512 m 1
 640 512 l 1
 640 640 l 1
 512 640 l 1
 512 512 l 1
640 640 m 1
 768 640 l 1
 768 768 l 1
 768 896 l 1
 640 896 l 1
 640 768 l 1
 640 640 l 1
EndSplineSet
EndChar

StartChar: one
Encoding: 49 49 85
Width: 896
Flags: HW
LayerCount: 2
Fore
SplineSet
128 0 m 1
 256 0 l 1
 256 128 l 1
 256 256 l 1
 128 256 l 1
 128 128 l 1
 128 0 l 1
256 256 m 1
 384 256 l 1
 384 384 l 1
 256 384 l 1
 256 256 l 1
384 128 m 1
 512 128 l 1
 512 256 l 1
 384 256 l 1
 384 128 l 1
512 0 m 1
 640 0 l 1
 640 128 l 1
 512 128 l 1
 512 0 l 1
640 128 m 1
 768 128 l 1
 768 256 l 1
 768 384 l 1
 768 512 l 1
 768 640 l 1
 768 768 l 1
 768 896 l 1
 640 896 l 1
 640 768 l 1
 640 640 l 1
 640 512 l 1
 640 384 l 1
 640 256 l 1
 640 128 l 1
EndSplineSet
EndChar

StartChar: two
Encoding: 50 50 86
Width: 896
Flags: HW
LayerCount: 2
Fore
SplineSet
128 0 m 1
 256 0 l 1
 256 128 l 1
 128 128 l 1
 128 0 l 1
256 128 m 1
 384 128 l 1
 384 256 l 1
 256 256 l 1
 256 128 l 1
384 0 m 1
 512 0 l 1
 640 0 l 1
 640 128 l 1
 512 128 l 1
 384 128 l 1
 384 0 l 1
384 384 m 1
 512 384 l 1
 512 512 l 1
 512 640 l 1
 384 640 l 1
 384 512 l 1
 384 384 l 1
512 256 m 1
 640 256 l 1
 640 384 l 1
 512 384 l 1
 512 256 l 1
512 640 m 1
 640 640 l 1
 640 768 l 1
 512 768 l 1
 512 640 l 1
640 128 m 1
 768 128 l 1
 768 256 l 1
 640 256 l 1
 640 128 l 1
640 768 m 1
 768 768 l 1
 768 896 l 1
 640 896 l 1
 640 768 l 1
EndSplineSet
EndChar

StartChar: three
Encoding: 51 51 87
Width: 896
Flags: HW
LayerCount: 2
Fore
SplineSet
128 0 m 1
 256 0 l 1
 256 128 l 1
 128 128 l 1
 128 0 l 1
128 512 m 1
 256 512 l 1
 256 640 l 1
 128 640 l 1
 128 512 l 1
256 128 m 1
 384 128 l 1
 384 256 l 1
 256 256 l 1
 256 128 l 1
256 384 m 1
 384 384 l 1
 512 384 l 1
 512 512 l 1
 384 512 l 1
 256 512 l 1
 256 384 l 1
256 640 m 1
 384 640 l 1
 512 640 l 1
 640 640 l 1
 640 768 l 1
 512 768 l 1
 384 768 l 1
 256 768 l 1
 256 640 l 1
384 0 m 1
 512 0 l 1
 640 0 l 1
 640 128 l 1
 512 128 l 1
 384 128 l 1
 384 0 l 1
512 256 m 1
 640 256 l 1
 640 384 l 1
 512 384 l 1
 512 256 l 1
640 128 m 1
 768 128 l 1
 768 256 l 1
 640 256 l 1
 640 128 l 1
640 768 m 1
 768 768 l 1
 768 896 l 1
 640 896 l 1
 640 768 l 1
EndSplineSet
EndChar

StartChar: four
Encoding: 52 52 88
Width: 896
Flags: HW
LayerCount: 2
Fore
SplineSet
128 0 m 1
 256 0 l 1
 256 128 l 1
 256 256 l 1
 256 384 l 1
 384 384 l 1
 512 384 l 1
 512 512 l 1
 384 512 l 1
 256 512 l 1
 128 512 l 1
 128 384 l 1
 128 256 l 1
 128 128 l 1
 128 0 l 1
512 512 m 1
 640 512 l 1
 640 640 l 1
 512 640 l 1
 512 512 l 1
640 640 m 1
 768 640 l 1
 768 768 l 1
 768 896 l 1
 640 896 l 1
 640 768 l 1
 640 640 l 1
EndSplineSet
EndChar

StartChar: five
Encoding: 53 53 89
Width: 896
Flags: HW
LayerCount: 2
Fore
SplineSet
128 0 m 1
 256 0 l 1
 256 128 l 1
 256 256 l 1
 384 256 l 1
 384 128 l 1
 384 0 l 1
 512 0 l 1
 640 0 l 1
 768 0 l 1
 768 128 l 1
 768 256 l 1
 768 384 l 1
 768 512 l 1
 768 640 l 1
 768 768 l 1
 768 896 l 1
 640 896 l 1
 640 768 l 1
 640 640 l 1
 640 512 l 1
 640 384 l 1
 640 256 l 1
 640 128 l 1
 512 128 l 1
 512 256 l 1
 512 384 l 1
 384 384 l 1
 256 384 l 1
 128 384 l 1
 128 256 l 1
 128 128 l 1
 128 0 l 1
EndSplineSet
EndChar

StartChar: six
Encoding: 54 54 90
Width: 896
Flags: HW
LayerCount: 2
Fore
SplineSet
128 0 m 1
 256 0 l 1
 256 128 l 1
 256 256 l 1
 384 256 l 1
 384 384 l 1
 256 384 l 1
 128 384 l 1
 128 256 l 1
 128 128 l 1
 128 0 l 1
384 0 m 1
 512 0 l 1
 640 0 l 1
 640 128 l 1
 512 128 l 1
 512 256 l 1
 384 256 l 1
 384 128 l 1
 384 0 l 1
384 512 m 1
 512 512 l 1
 512 640 l 1
 384 640 l 1
 384 512 l 1
512 384 m 1
 640 384 l 1
 640 512 l 1
 512 512 l 1
 512 384 l 1
512 640 m 1
 640 640 l 1
 768 640 l 1
 768 768 l 1
 768 896 l 1
 640 896 l 1
 640 768 l 1
 512 768 l 1
 512 640 l 1
640 128 m 1
 768 128 l 1
 768 256 l 1
 768 384 l 1
 640 384 l 1
 640 256 l 1
 640 128 l 1
EndSplineSet
EndChar

StartChar: seven
Encoding: 55 55 91
Width: 896
Flags: HW
LayerCount: 2
Fore
SplineSet
128 0 m 1
 256 0 l 1
 256 128 l 1
 256 256 l 1
 128 256 l 1
 128 128 l 1
 128 0 l 1
256 256 m 1
 384 256 l 1
 384 384 l 1
 256 384 l 1
 256 256 l 1
384 384 m 1
 512 384 l 1
 640 384 l 1
 768 384 l 1
 768 512 l 1
 768 640 l 1
 768 768 l 1
 768 896 l 1
 640 896 l 1
 640 768 l 1
 640 640 l 1
 640 512 l 1
 512 512 l 1
 384 512 l 1
 384 384 l 1
EndSplineSet
EndChar

StartChar: eight
Encoding: 56 56 92
Width: 896
Flags: HW
LayerCount: 2
Fore
SplineSet
128 0 m 1
 256 0 l 1
 256 128 l 1
 128 128 l 1
 128 0 l 1
128 384 m 1
 256 384 l 1
 384 384 l 1
 512 384 l 1
 640 384 l 1
 640 256 l 1
 768 256 l 1
 768 384 l 1
 768 512 l 1
 640 512 l 1
 512 512 l 1
 384 512 l 1
 256 512 l 1
 256 640 l 1
 128 640 l 1
 128 512 l 1
 128 384 l 1
256 128 m 1
 384 128 l 1
 512 128 l 1
 640 128 l 1
 640 256 l 1
 512 256 l 1
 384 256 l 1
 256 256 l 1
 256 128 l 1
256 640 m 1
 384 640 l 1
 512 640 l 1
 640 640 l 1
 640 768 l 1
 512 768 l 1
 384 768 l 1
 256 768 l 1
 256 640 l 1
640 768 m 1
 768 768 l 1
 768 896 l 1
 640 896 l 1
 640 768 l 1
EndSplineSet
EndChar

StartChar: nine
Encoding: 57 57 93
Width: 896
Flags: HW
LayerCount: 2
Fore
SplineSet
128 0 m 1
 256 0 l 1
 256 128 l 1
 128 128 l 1
 128 0 l 1
256 128 m 1
 384 128 l 1
 384 256 l 1
 256 256 l 1
 256 128 l 1
384 0 m 1
 512 0 l 1
 640 0 l 1
 640 128 l 1
 512 128 l 1
 384 128 l 1
 384 0 l 1
384 256 m 1
 512 256 l 1
 512 384 l 1
 384 384 l 1
 384 256 l 1
640 128 m 1
 768 128 l 1
 768 256 l 1
 768 384 l 1
 768 512 l 1
 768 640 l 1
 768 768 l 1
 768 896 l 1
 640 896 l 1
 640 768 l 1
 640 640 l 1
 640 512 l 1
 640 384 l 1
 640 256 l 1
 640 128 l 1
EndSplineSet
EndChar

StartChar: adieresis_i
Encoding: 65570 -1 94
Width: 1024
Flags: HW
LayerCount: 2
Fore
SplineSet
256 384 m 1
 384 384 l 1
 512 384 l 1
 640 384 l 1
 768 384 l 1
 768 512 l 1
 768 640 l 1
 640 640 l 1
 640 512 l 1
 512 512 l 1
 384 512 l 1
 256 512 l 1
 256 384 l 1
384 768 m 1
 512 768 l 1
 512 896 l 1
 384 896 l 1
 384 768 l 1
512 640 m 1
 640 640 l 1
 640 768 l 1
 512 768 l 1
 512 640 l 1
EndSplineSet
Ligature2: "VowelLigature subtable" i adieresis
Ligature2: "VowelLigature subtable" adieresis i
EndChar

StartChar: a_ograve
Encoding: 65571 -1 95
Width: 1024
Flags: HW
LayerCount: 2
Fore
SplineSet
128 512 m 1
 256 512 l 1
 256 640 l 1
 128 640 l 1
 128 512 l 1
256 384 m 1
 384 384 l 1
 512 384 l 1
 640 384 l 1
 640 512 l 1
 512 512 l 1
 384 512 l 1
 256 512 l 1
 256 384 l 1
384 640 m 5
 512 640 l 5
 512 768 l 5
 384 768 l 5
 384 640 l 5
640 512 m 1
 768 512 l 1
 768 640 l 1
 640 640 l 1
 640 512 l 1
EndSplineSet
LCarets2: 1 0
Ligature2: "VowelLigature subtable" ograve a
Ligature2: "VowelLigature subtable" a ograve
EndChar

StartChar: a_oacute
Encoding: 65572 -1 96
Width: 1152
Flags: HW
LayerCount: 2
Fore
SplineSet
128 512 m 1
 256 512 l 1
 256 640 l 1
 128 640 l 1
 128 512 l 1
256 640 m 1
 384 640 l 1
 512 640 l 1
 640 640 l 1
 640 768 l 1
 512 768 l 1
 384 768 l 1
 256 768 l 1
 256 640 l 1
384 384 m 1
 512 384 l 1
 512 512 l 1
 384 512 l 1
 384 384 l 1
640 512 m 1
 768 512 l 1
 768 640 l 1
 640 640 l 1
 640 512 l 1
EndSplineSet
Ligature2: "VowelLigature subtable" oacute a
Ligature2: "VowelLigature subtable" a oacute
EndChar

StartChar: a
Encoding: 97 97 97
Width: 1024
Flags: HW
LayerCount: 2
Fore
SplineSet
512 384 m 1
 640 384 l 1
 640 512 l 1
 512 512 l 1
 512 384 l 1
EndSplineSet
EndChar

StartChar: e
Encoding: 101 101 98
Width: 1024
Flags: HW
LayerCount: 2
Fore
SplineSet
256 384 m 1
 384 384 l 1
 512 384 l 1
 640 384 l 1
 640 256 l 1
 768 256 l 1
 768 384 l 1
 768 512 l 1
 640 512 l 1
 512 512 l 1
 384 512 l 1
 256 512 l 1
 256 384 l 1
EndSplineSet
EndChar

StartChar: i
Encoding: 105 105 99
Width: 1024
Flags: HW
LayerCount: 2
Fore
SplineSet
256 640 m 1
 384 640 l 1
 384 768 l 1
 256 768 l 1
 256 640 l 1
384 512 m 1
 512 512 l 1
 512 640 l 1
 384 640 l 1
 384 512 l 1
512 384 m 1
 640 384 l 1
 640 512 l 1
 512 512 l 1
 512 384 l 1
640 256 m 1
 768 256 l 1
 768 384 l 1
 640 384 l 1
 640 256 l 1
EndSplineSet
EndChar

StartChar: o
Encoding: 111 111 100
Width: 1024
Flags: HW
LayerCount: 2
Fore
SplineSet
256 640 m 1
 384 640 l 1
 512 640 l 1
 640 640 l 1
 640 768 l 1
 512 768 l 1
 384 768 l 1
 256 768 l 1
 256 640 l 1
640 256 m 1
 768 256 l 1
 768 384 l 1
 768 512 l 1
 768 640 l 1
 640 640 l 1
 640 512 l 1
 640 384 l 1
 640 256 l 1
EndSplineSet
EndChar

StartChar: u
Encoding: 117 117 101
Width: 1024
Flags: HW
LayerCount: 2
Fore
SplineSet
512 256 m 1
 640 256 l 1
 768 256 l 1
 768 384 l 1
 640 384 l 1
 640 512 l 1
 640 640 l 1
 640 768 l 1
 512 768 l 1
 512 640 l 1
 512 512 l 1
 512 384 l 1
 512 256 l 1
EndSplineSet
EndChar

StartChar: adieresis
Encoding: 228 228 102
Width: 1024
Flags: HW
LayerCount: 2
Fore
SplineSet
256 384 m 1
 384 384 l 1
 512 384 l 1
 640 384 l 1
 768 384 l 1
 768 512 l 1
 640 512 l 1
 512 512 l 1
 384 512 l 1
 256 512 l 1
 256 384 l 1
EndSplineSet
EndChar

StartChar: edieresis
Encoding: 235 235 103
Width: 1024
Flags: HW
LayerCount: 2
Fore
SplineSet
256 384 m 1
 384 384 l 1
 512 384 l 1
 640 384 l 1
 768 384 l 1
 768 512 l 1
 640 512 l 1
 512 512 l 1
 384 512 l 1
 384 640 l 1
 256 640 l 1
 256 512 l 1
 256 384 l 1
EndSplineSet
EndChar

StartChar: udieresis
Encoding: 252 252 104
Width: 1024
Flags: HW
LayerCount: 2
Fore
SplineSet
384 640 m 1
 512 640 l 1
 512 512 l 1
 512 384 l 1
 512 256 l 1
 640 256 l 1
 640 384 l 1
 640 512 l 1
 640 640 l 1
 640 768 l 1
 512 768 l 1
 384 768 l 1
 384 640 l 1
EndSplineSet
EndChar

StartChar: odieresis
Encoding: 246 246 105
Width: 1024
Flags: HW
LayerCount: 2
Fore
SplineSet
256 384 m 1
 384 384 l 1
 384 512 l 1
 384 640 l 1
 384 768 l 1
 256 768 l 1
 256 640 l 1
 256 512 l 1
 256 384 l 1
384 256 m 1
 512 256 l 1
 640 256 l 1
 768 256 l 1
 768 384 l 1
 640 384 l 1
 512 384 l 1
 384 384 l 1
 384 256 l 1
EndSplineSet
EndChar

StartChar: idieresis
Encoding: 239 239 106
Width: 1024
Flags: HW
LayerCount: 2
Fore
SplineSet
512 256 m 1
 640 256 l 1
 640 384 l 1
 640 512 l 1
 640 640 l 1
 640 768 l 1
 512 768 l 1
 512 640 l 1
 512 512 l 1
 512 384 l 1
 512 256 l 1
EndSplineSet
EndChar

StartChar: ograve
Encoding: 242 242 107
Width: 1152
Flags: HW
LayerCount: 2
Fore
SplineSet
128 512 m 1
 256 512 l 1
 256 640 l 1
 128 640 l 1
 128 512 l 1
256 384 m 1
 384 384 l 1
 512 384 l 1
 640 384 l 1
 640 512 l 1
 512 512 l 1
 384 512 l 1
 256 512 l 1
 256 384 l 1
640 512 m 1
 768 512 l 1
 768 640 l 1
 640 640 l 1
 640 512 l 1
EndSplineSet
EndChar

StartChar: oacute
Encoding: 243 243 108
Width: 1152
Flags: HW
LayerCount: 2
Fore
SplineSet
128 512 m 1
 256 512 l 1
 256 640 l 1
 128 640 l 1
 128 512 l 1
256 640 m 1
 384 640 l 1
 512 640 l 1
 640 640 l 1
 640 768 l 1
 512 768 l 1
 384 768 l 1
 256 768 l 1
 256 640 l 1
640 512 m 1
 768 512 l 1
 768 640 l 1
 640 640 l 1
 640 512 l 1
EndSplineSet
EndChar

StartChar: ohungarumlaut
Encoding: 337 337 109
Width: 1024
Flags: HW
LayerCount: 2
Fore
SplineSet
256 384 m 1
 384 384 l 1
 384 512 l 1
 384 640 l 1
 384 768 l 1
 256 768 l 1
 256 640 l 1
 256 512 l 1
 256 384 l 1
384 256 m 1
 512 256 l 1
 640 256 l 1
 640 128 l 1
 768 128 l 1
 768 256 l 1
 768 384 l 1
 640 384 l 1
 512 384 l 1
 384 384 l 1
 384 256 l 1
EndSplineSet
EndChar
